<svg width="82" height="122" viewBox="0 0 82 122" fill="none" xmlns="http://www.w3.org/2000/svg">
<path d="M39.0682 1.44666C18.4243 1.44666 1.6709 18.2001 1.6709 38.844C1.6709 59.4879 18.4243 76.2413 39.0682 76.2413C59.7121 76.2413 76.4655 59.4879 76.4655 38.844C76.4655 18.2001 59.7121 1.44666 39.0682 1.44666ZM28.407 57.5426C23.4478 57.5426 18.6917 55.5726 15.185 52.0659C11.6783 48.5592 9.70831 43.8032 9.70831 38.844C9.70831 33.8848 11.6783 29.1287 15.185 25.622C18.6917 22.1153 23.4478 20.1453 28.407 20.1453C33.1269 20.1453 37.4698 21.8041 40.923 25.016L35.8563 29.9319C33.8658 27.9867 31.1364 27.0518 28.407 27.0518C21.9378 27.0518 16.7655 32.405 16.7655 38.8289C16.7655 45.2528 21.9228 50.606 28.407 50.606C33.3229 50.606 38.1936 47.7258 38.9777 42.5686H28.407V36.1447H46.035C46.2295 37.1737 46.3255 38.219 46.3215 39.2662C46.3215 49.9425 39.1587 57.5426 28.407 57.5426ZM63.1201 41.5281V46.8814H57.7669V41.5281H52.4136V36.1749H57.7669V30.8216H63.1201V36.1749H68.4281V41.5281H63.1201Z" fill="white"/>
<path d="M9.77344 103.797H15.6914V112.199C14.7852 112.488 13.8633 112.707 12.9258 112.856C11.9883 113.004 10.9023 113.078 9.66797 113.078C7.05859 113.078 5.03906 112.305 3.60938 110.758C2.17969 109.211 1.46484 107.051 1.46484 104.277C1.46484 102.488 1.82031 100.926 2.53125 99.59C3.24219 98.254 4.26562 97.2345 5.60156 96.5314C6.94531 95.8204 8.52734 95.465 10.3477 95.465C12.1758 95.465 13.8789 95.8009 15.457 96.4728L14.6367 98.3478C13.1289 97.6915 11.6562 97.3634 10.2188 97.3634C8.17969 97.3634 6.58594 97.9806 5.4375 99.215C4.28906 100.449 3.71484 102.137 3.71484 104.277C3.71484 106.543 4.26562 108.266 5.36719 109.445C6.46875 110.625 8.07031 111.215 10.1719 111.215C11.3203 111.215 12.4414 111.078 13.5352 110.805V105.719H9.77344V103.797ZM30.7031 106.387C30.7031 108.488 30.1719 110.129 29.1094 111.309C28.0469 112.488 26.5781 113.078 24.7031 113.078C23.5391 113.078 22.5078 112.809 21.6094 112.27C20.7109 111.723 20.0195 110.942 19.5352 109.926C19.0508 108.91 18.8086 107.731 18.8086 106.387C18.8086 104.293 19.332 102.664 20.3789 101.5C21.4258 100.328 22.8945 99.7423 24.7852 99.7423C26.5977 99.7423 28.0352 100.34 29.0977 101.535C30.168 102.723 30.7031 104.34 30.7031 106.387ZM20.9883 106.387C20.9883 108.004 21.3047 109.234 21.9375 110.078C22.5781 110.914 23.5195 111.332 24.7617 111.332C25.9883 111.332 26.9219 110.914 27.5625 110.078C28.2031 109.234 28.5234 108.004 28.5234 106.387C28.5234 104.77 28.1992 103.555 27.5508 102.742C26.9102 101.922 25.9688 101.512 24.7266 101.512C22.2344 101.512 20.9883 103.137 20.9883 106.387ZM45.2344 106.387C45.2344 108.488 44.7031 110.129 43.6406 111.309C42.5781 112.488 41.1094 113.078 39.2344 113.078C38.0703 113.078 37.0391 112.809 36.1406 112.27C35.2422 111.723 34.5508 110.942 34.0664 109.926C33.582 108.91 33.3398 107.731 33.3398 106.387C33.3398 104.293 33.8633 102.664 34.9102 101.5C35.957 100.328 37.4258 99.7423 39.3164 99.7423C41.1289 99.7423 42.5664 100.34 43.6289 101.535C44.6992 102.723 45.2344 104.34 45.2344 106.387ZM35.5195 106.387C35.5195 108.004 35.8359 109.234 36.4688 110.078C37.1094 110.914 38.0508 111.332 39.293 111.332C40.5195 111.332 41.4531 110.914 42.0938 110.078C42.7344 109.234 43.0547 108.004 43.0547 106.387C43.0547 104.77 42.7305 103.555 42.082 102.742C41.4414 101.922 40.5 101.512 39.2578 101.512C36.7656 101.512 35.5195 103.137 35.5195 106.387ZM53.4844 111.356C54.7812 111.356 55.7227 111.008 56.3086 110.313C56.9023 109.609 57.1992 108.484 57.1992 106.938V106.434C57.1992 104.715 56.9023 103.465 56.3086 102.684C55.7148 101.902 54.7578 101.512 53.4375 101.512C52.3594 101.512 51.5234 101.942 50.9297 102.801C50.3438 103.652 50.0508 104.871 50.0508 106.457C50.0508 108.051 50.3359 109.266 50.9062 110.102C51.4844 110.938 52.3438 111.356 53.4844 111.356ZM57.1758 112.727L57.2461 111.145H57.1523C56.2852 112.434 54.957 113.078 53.168 113.078C51.5039 113.078 50.2031 112.5 49.2656 111.344C48.3359 110.18 47.8711 108.543 47.8711 106.434C47.8711 104.363 48.3398 102.731 49.2773 101.535C50.2227 100.34 51.5117 99.7423 53.1445 99.7423C54.8867 99.7423 56.2305 100.391 57.1758 101.688H57.3047L57.5859 99.9767H59.2617V113.055C59.2617 114.899 58.793 116.285 57.8555 117.215C56.9258 118.145 55.4766 118.609 53.5078 118.609C51.6328 118.609 50.0898 118.336 48.8789 117.789V115.844C50.1289 116.516 51.7109 116.852 53.625 116.852C54.7188 116.852 55.582 116.531 56.2148 115.891C56.8555 115.25 57.1758 114.363 57.1758 113.231V112.727ZM65.4609 112.844H63.3516V94.6095H65.4609V112.844ZM75.0117 113.078C73.082 113.078 71.5664 112.496 70.4648 111.332C69.3711 110.16 68.8242 108.551 68.8242 106.504C68.8242 104.442 69.3359 102.801 70.3594 101.582C71.3828 100.356 72.7656 99.7423 74.5078 99.7423C76.125 99.7423 77.4141 100.266 78.375 101.313C79.3359 102.352 79.8164 103.762 79.8164 105.543V106.82H71.0039C71.043 108.281 71.4141 109.391 72.1172 110.149C72.8203 110.906 73.8164 111.285 75.1055 111.285C75.793 111.285 76.4453 111.227 77.0625 111.109C77.6797 110.984 78.4023 110.746 79.2305 110.395V112.246C78.5195 112.551 77.8516 112.766 77.2266 112.891C76.6016 113.016 75.8633 113.078 75.0117 113.078ZM74.4844 101.465C73.4766 101.465 72.6797 101.789 72.0938 102.438C71.5078 103.086 71.1602 103.988 71.0508 105.145H77.6016C77.5859 103.942 77.3086 103.027 76.7695 102.402C76.2305 101.777 75.4688 101.465 74.4844 101.465Z" fill="white"/>
</svg>
