<svg width="99" height="122" viewBox="0 0 99 122" fill="none" xmlns="http://www.w3.org/2000/svg">
<path d="M50.3964 22.9657L56.8649 47.1992H43.9279L50.3964 22.9657ZM84.1746 12.3039V65.3839C84.1746 69.3794 80.9319 72.6221 76.9364 72.6221H23.8564C19.8609 72.6221 16.6182 69.3794 16.6182 65.3839V12.3039C16.6182 8.30838 19.8609 5.06567 23.8564 5.06567H76.9364C80.9319 5.06567 84.1746 8.30838 84.1746 12.3039ZM74.3283 61.3571L60.0787 16.3138H40.7165L26.4669 61.3571H40.1447L56.988 47.5442L60.636 61.3571H74.3283Z" fill="white"/>
<path d="M2.33203 95.7111H7.21875C9.51562 95.7111 11.1719 96.0548 12.1875 96.7423C13.2109 97.422 13.7227 98.4923 13.7227 99.9532C13.7227 100.969 13.4453 101.809 12.8906 102.473C12.3359 103.129 11.5273 103.555 10.4648 103.75V103.867C11.7852 104.094 12.7539 104.551 13.3711 105.238C13.9961 105.926 14.3086 106.836 14.3086 107.969C14.3086 109.5 13.7852 110.695 12.7383 111.555C11.6914 112.414 10.2305 112.844 8.35547 112.844H2.33203V95.7111ZM4.48828 103H7.65234C8.99609 103 9.97266 102.785 10.582 102.356C11.1914 101.926 11.4961 101.207 11.4961 100.199C11.4961 99.2618 11.1602 98.5861 10.4883 98.172C9.82422 97.7579 8.76953 97.5509 7.32422 97.5509H4.48828V103ZM4.48828 104.805V111.016H7.94531C9.32031 111.016 10.3398 110.75 11.0039 110.219C11.668 109.688 12 108.883 12 107.805C12 106.781 11.6484 106.027 10.9453 105.543C10.2422 105.051 9.1875 104.805 7.78125 104.805H4.48828ZM23.1211 113.078C21.1914 113.078 19.6758 112.496 18.5742 111.332C17.4805 110.16 16.9336 108.551 16.9336 106.504C16.9336 104.442 17.4453 102.801 18.4688 101.582C19.4922 100.356 20.875 99.7423 22.6172 99.7423C24.2344 99.7423 25.5234 100.266 26.4844 101.313C27.4453 102.352 27.9258 103.762 27.9258 105.543V106.82H19.1133C19.1523 108.281 19.5234 109.391 20.2266 110.149C20.9297 110.906 21.9258 111.285 23.2148 111.285C23.9023 111.285 24.5547 111.227 25.1719 111.109C25.7891 110.984 26.5117 110.746 27.3398 110.395V112.246C26.6289 112.551 25.9609 112.766 25.3359 112.891C24.7109 113.016 23.9727 113.078 23.1211 113.078ZM22.5938 101.465C21.5859 101.465 20.7891 101.789 20.2031 102.438C19.6172 103.086 19.2695 103.988 19.1602 105.145H25.7109C25.6953 103.942 25.418 103.027 24.8789 102.402C24.3398 101.777 23.5781 101.465 22.5938 101.465ZM39.5742 109.293C39.5742 110.496 39.125 111.43 38.2266 112.094C37.3281 112.75 36.0664 113.078 34.4414 113.078C32.7461 113.078 31.3984 112.809 30.3984 112.27V110.348C31.8125 111.035 33.1758 111.379 34.4883 111.379C35.5508 111.379 36.3242 111.207 36.8086 110.863C37.293 110.52 37.5352 110.059 37.5352 109.481C37.5352 108.973 37.3008 108.543 36.832 108.192C36.3711 107.84 35.5469 107.438 34.3594 106.984C33.1484 106.516 32.2969 106.117 31.8047 105.789C31.3125 105.453 30.9492 105.078 30.7148 104.664C30.4883 104.25 30.375 103.746 30.375 103.152C30.375 102.098 30.8047 101.266 31.6641 100.656C32.5234 100.047 33.7031 99.7423 35.2031 99.7423C36.6641 99.7423 38.0312 100.031 39.3047 100.609L38.5898 102.285C37.2852 101.738 36.1094 101.465 35.0625 101.465C34.1875 101.465 33.5234 101.606 33.0703 101.887C32.6172 102.16 32.3906 102.539 32.3906 103.024C32.3906 103.492 32.5859 103.883 32.9766 104.195C33.3672 104.5 34.2773 104.926 35.707 105.473C36.7773 105.871 37.5664 106.242 38.0742 106.586C38.5898 106.93 38.9688 107.317 39.2109 107.746C39.4531 108.176 39.5742 108.692 39.5742 109.293ZM47.0039 111.356C47.2773 111.356 47.5977 111.328 47.9648 111.274C48.332 111.219 48.6094 111.156 48.7969 111.086V112.703C48.6016 112.789 48.2969 112.871 47.8828 112.949C47.4766 113.035 47.0625 113.078 46.6406 113.078C44.125 113.078 42.8672 111.754 42.8672 109.106V101.617H41.0508V100.609L42.8906 99.7657L43.7344 97.0236H44.9883V99.9767H48.7031V101.617H44.9883V109.047C44.9883 109.789 45.1641 110.359 45.5156 110.758C45.875 111.156 46.3711 111.356 47.0039 111.356ZM57.9023 95.7111H62.7891C65.0859 95.7111 66.7422 96.0548 67.7578 96.7423C68.7812 97.422 69.293 98.4923 69.293 99.9532C69.293 100.969 69.0156 101.809 68.4609 102.473C67.9062 103.129 67.0977 103.555 66.0352 103.75V103.867C67.3555 104.094 68.3242 104.551 68.9414 105.238C69.5664 105.926 69.8789 106.836 69.8789 107.969C69.8789 109.5 69.3555 110.695 68.3086 111.555C67.2617 112.414 65.8008 112.844 63.9258 112.844H57.9023V95.7111ZM60.0586 103H63.2227C64.5664 103 65.543 102.785 66.1523 102.356C66.7617 101.926 67.0664 101.207 67.0664 100.199C67.0664 99.2618 66.7305 98.5861 66.0586 98.172C65.3945 97.7579 64.3398 97.5509 62.8945 97.5509H60.0586V103ZM60.0586 104.805V111.016H63.5156C64.8906 111.016 65.9102 110.75 66.5742 110.219C67.2383 109.688 67.5703 108.883 67.5703 107.805C67.5703 106.781 67.2188 106.027 66.5156 105.543C65.8125 105.051 64.7578 104.805 63.3516 104.805H60.0586ZM75.2109 99.9767V108.262C75.2109 109.301 75.4414 110.074 75.9023 110.582C76.3711 111.082 77.0938 111.332 78.0703 111.332C79.3906 111.332 80.3516 110.965 80.9531 110.231C81.5547 109.496 81.8555 108.313 81.8555 106.68V99.9767H83.9766V112.844H82.2422L81.9375 111.145H81.832C81.4492 111.762 80.9062 112.238 80.2031 112.574C79.5 112.91 78.6836 113.078 77.7539 113.078C76.207 113.078 75.0391 112.707 74.25 111.965C73.4688 111.223 73.0781 110.035 73.0781 108.402V99.9767H75.2109ZM86.0391 99.9767H88.3008L91.0781 107.301C91.6641 108.895 92.0234 110.063 92.1562 110.805H92.25C92.3203 110.516 92.4805 109.977 92.7305 109.188C92.9805 108.391 93.1914 107.754 93.3633 107.277L95.9766 99.9767H98.25L92.707 114.625C92.168 116.047 91.5273 117.067 90.7852 117.684C90.043 118.301 89.125 118.609 88.0312 118.609C87.4453 118.609 86.8633 118.543 86.2852 118.41V116.734C86.6758 116.828 87.1445 116.875 87.6914 116.875C88.3633 116.875 88.9336 116.688 89.4023 116.313C89.8711 115.945 90.2539 115.375 90.5508 114.602L91.2188 112.891L86.0391 99.9767Z" fill="white"/>
</svg>
