<svg width="52" height="52" viewBox="0 0 52 52" fill="none" xmlns="http://www.w3.org/2000/svg">
<path d="M26 0C19.1 0 13.5065 5.59353 13.5065 12.4935C13.5065 13.053 13.053 13.5065 12.4935 13.5065C5.59353 13.5065 0 19.1 0 26C0 32.9 5.59353 38.4936 12.4935 38.4936C13.053 38.4936 13.5065 38.947 13.5065 39.5064C13.5065 46.4064 19.1 52 26 52C32.9 52 38.4936 46.4064 38.4936 39.5064C38.4936 38.947 38.947 38.4936 39.5064 38.4936C46.4064 38.4936 52 32.9 52 26C52 19.1 46.4064 13.5065 39.5064 13.5065C38.947 13.5065 38.4936 13.053 38.4936 12.4935C38.4936 5.59353 32.9 0 26 0Z" fill="#202020"/>
<path d="M30.64 33H20.86V31.14L24.5 27.46C25.22 26.7267 25.8067 26.1 26.26 25.58C26.7267 25.0467 27.0667 24.5533 27.28 24.1C27.5067 23.6467 27.62 23.1533 27.62 22.62C27.62 21.9667 27.4333 21.48 27.06 21.16C26.6867 20.8267 26.1933 20.66 25.58 20.66C24.98 20.66 24.42 20.7867 23.9 21.04C23.38 21.28 22.84 21.6267 22.28 22.08L20.9 20.42C21.3 20.0733 21.7267 19.76 22.18 19.48C22.6333 19.1867 23.1467 18.9533 23.72 18.78C24.2933 18.6067 24.96 18.52 25.72 18.52C26.64 18.52 27.4267 18.6867 28.08 19.02C28.7467 19.34 29.26 19.7867 29.62 20.36C29.98 20.9333 30.16 21.6 30.16 22.36C30.16 22.9467 30.0733 23.4933 29.9 24C29.7267 24.4933 29.4733 24.98 29.14 25.46C28.8067 25.94 28.4 26.4267 27.92 26.92C27.44 27.4133 26.9 27.9467 26.3 28.52L24.04 30.7V30.82H30.64V33Z" fill="white"/>
</svg>
