<svg width="52" height="52" viewBox="0 0 52 52" fill="none" xmlns="http://www.w3.org/2000/svg">
<path d="M26 0C19.1 0 13.5065 5.59353 13.5065 12.4935C13.5065 13.053 13.053 13.5065 12.4935 13.5065C5.59353 13.5065 0 19.1 0 26C0 32.9 5.59353 38.4936 12.4935 38.4936C13.053 38.4936 13.5065 38.947 13.5065 39.5064C13.5065 46.4064 19.1 52 26 52C32.9 52 38.4936 46.4064 38.4936 39.5064C38.4936 38.947 38.947 38.4936 39.5064 38.4936C46.4064 38.4936 52 32.9 52 26C52 19.1 46.4064 13.5065 39.5064 13.5065C38.947 13.5065 38.4936 13.053 38.4936 12.4935C38.4936 5.59353 32.9 0 26 0Z" fill="#202020"/>
<path d="M27.82 33H25.3V24.1C25.3 23.8067 25.3 23.5067 25.3 23.2C25.3133 22.8933 25.3267 22.5867 25.34 22.28C25.3533 21.96 25.3667 21.6667 25.38 21.4C25.2467 21.5333 25.08 21.6933 24.88 21.88C24.68 22.0533 24.4733 22.2333 24.26 22.42L22.66 23.7L21.4 22.14L25.72 18.72H27.82V33Z" fill="white"/>
</svg>
