<svg width="52" height="52" viewBox="0 0 52 52" fill="none" xmlns="http://www.w3.org/2000/svg">
<path d="M26 0C19.1 0 13.5065 5.59353 13.5065 12.4935C13.5065 13.053 13.053 13.5065 12.4935 13.5065C5.59353 13.5065 0 19.1 0 26C0 32.9 5.59353 38.4936 12.4935 38.4936C13.053 38.4936 13.5065 38.947 13.5065 39.5064C13.5065 46.4064 19.1 52 26 52C32.9 52 38.4936 46.4064 38.4936 39.5064C38.4936 38.947 38.947 38.4936 39.5064 38.4936C46.4064 38.4936 52 32.9 52 26C52 19.1 46.4064 13.5065 39.5064 13.5065C38.947 13.5065 38.4936 13.053 38.4936 12.4935C38.4936 5.59353 32.9 0 26 0Z" fill="#202020"/>
<path d="M30.08 21.98C30.08 22.62 29.9467 23.18 29.68 23.66C29.4267 24.14 29.0733 24.5333 28.62 24.84C28.1667 25.1333 27.64 25.3467 27.04 25.48V25.54C28.1867 25.6733 29.0533 26.0267 29.64 26.6C30.2267 27.1733 30.52 27.9333 30.52 28.88C30.52 29.7067 30.32 30.4467 29.92 31.1C29.52 31.7533 28.9 32.2667 28.06 32.64C27.2333 33.0133 26.1667 33.2 24.86 33.2C24.0867 33.2 23.3667 33.1333 22.7 33C22.0333 32.88 21.4067 32.6867 20.82 32.42V30.2C21.42 30.5067 22.06 30.74 22.74 30.9C23.42 31.06 24.06 31.14 24.66 31.14C25.82 31.14 26.64 30.9333 27.12 30.52C27.6 30.0933 27.84 29.5067 27.84 28.76C27.84 28.28 27.72 27.8867 27.48 27.58C27.24 27.2733 26.8467 27.0467 26.3 26.9C25.7667 26.74 25.0667 26.66 24.2 26.66H23V24.64H24.22C25.06 24.64 25.72 24.5467 26.2 24.36C26.6933 24.1733 27.04 23.9133 27.24 23.58C27.4533 23.2467 27.56 22.86 27.56 22.42C27.56 21.8467 27.3733 21.4 27 21.08C26.6267 20.76 26.0667 20.6 25.32 20.6C24.84 20.6 24.4067 20.6533 24.02 20.76C23.6333 20.8667 23.28 21.0067 22.96 21.18C22.64 21.34 22.34 21.5133 22.06 21.7L20.86 19.96C21.22 19.6933 21.6267 19.4533 22.08 19.24C22.5333 19.0133 23.04 18.84 23.6 18.72C24.16 18.5867 24.7733 18.52 25.44 18.52C26.92 18.52 28.06 18.8333 28.86 19.46C29.6733 20.0733 30.08 20.9133 30.08 21.98Z" fill="white"/>
</svg>
