<svg width="95" height="131" viewBox="0 0 95 131" fill="none" xmlns="http://www.w3.org/2000/svg">
<path d="M55.9048 50.7861C55.9048 52.5319 55.3871 54.2385 54.4172 55.6902C53.4473 57.1418 52.0687 58.2731 50.4557 58.9412C48.8428 59.6093 47.068 59.7841 45.3557 59.4436C43.6434 59.103 42.0706 58.2623 40.8361 57.0278C39.6016 55.7933 38.7609 54.2205 38.4203 52.5082C38.0797 50.7959 38.2545 49.0211 38.9226 47.4081C39.5907 45.7952 40.7221 44.4166 42.1737 43.4467C43.6253 42.4767 45.3319 41.959 47.0778 41.959C49.4189 41.959 51.6641 42.889 53.3194 44.5444C54.9748 46.1998 55.9048 48.445 55.9048 50.7861ZM85.3284 47.8437C85.3284 55.409 83.085 62.8044 78.882 69.0946C74.679 75.3849 68.705 80.2876 61.7156 83.1827C54.7263 86.0778 47.0353 86.8353 39.6154 85.3594C32.1956 83.8835 25.38 80.2404 20.0305 74.891C14.6811 69.5416 11.038 62.726 9.56214 55.3061C8.08623 47.8862 8.84372 40.1953 11.7388 33.2059C14.6339 26.2165 19.5366 20.2426 25.8269 16.0395C32.1172 11.8365 39.5125 9.59314 47.0778 9.59314C57.2192 9.60385 66.9421 13.6373 74.1132 20.8083C81.2843 27.9794 85.3177 37.7023 85.3284 47.8437ZM55.9048 39.0167C53.7191 37.3774 51.1201 36.3791 48.399 36.1338C45.6779 35.8884 42.9422 36.4056 40.4985 37.6275C38.0548 38.8493 35.9996 40.7276 34.5632 43.0517C33.1268 45.3758 32.366 48.0539 32.366 50.7861C32.366 53.5182 33.1268 56.1964 34.5632 58.5205C35.9996 60.8446 38.0548 62.7229 40.4985 63.9447C42.9422 65.1666 45.6779 65.6838 48.399 65.4384C51.1201 65.1931 53.7191 64.1948 55.9048 62.5555C55.9048 63.3359 56.2148 64.0843 56.7666 64.6361C57.3184 65.1879 58.0668 65.4979 58.8472 65.4979C59.6275 65.4979 60.3759 65.1879 60.9277 64.6361C61.4795 64.0843 61.7895 63.3359 61.7895 62.5555V39.0167C61.7904 35.8248 60.7531 32.7193 58.8342 30.1686C56.9154 27.6179 54.219 25.7604 51.152 24.8765C48.085 23.9926 44.8137 24.1301 41.8316 25.2683C38.8496 26.4065 36.3186 28.4836 34.6206 31.1863C34.2212 31.8464 34.097 32.6369 34.2747 33.3876C34.4524 34.1383 34.9179 34.7892 35.5709 35.2C36.2238 35.6109 37.012 35.7489 37.7657 35.5843C38.5194 35.4197 39.1783 34.9656 39.6005 34.32C40.6187 32.697 42.1373 31.4495 43.927 30.7656C45.7166 30.0817 47.6802 29.9987 49.5212 30.529C51.3622 31.0594 52.9807 32.1743 54.1323 33.7054C55.2839 35.2366 55.906 37.1008 55.9048 39.0167ZM72.3857 63.1477C71.7623 62.6787 70.9782 62.4764 70.2057 62.5854C69.4333 62.6944 68.7357 63.1056 68.2664 63.7288C65.7999 67.019 62.601 69.6897 58.9233 71.5291C55.2455 73.3685 51.1899 74.3262 47.0778 74.3262C42.9657 74.3262 38.9101 73.3685 35.2323 71.5291C31.5545 69.6897 28.3556 67.019 25.8891 63.7288C25.6605 63.4105 25.3705 63.1411 25.0363 62.9364C24.7021 62.7317 24.3304 62.5958 23.943 62.5367C23.5555 62.4777 23.1602 62.4966 22.7802 62.5924C22.4001 62.6882 22.0431 62.859 21.73 63.0947C21.4168 63.3304 21.154 63.6263 20.9568 63.9649C20.7596 64.3036 20.632 64.6783 20.5816 65.067C20.5312 65.4556 20.5589 65.8504 20.6632 66.2282C20.7674 66.606 20.9461 66.9592 21.1887 67.267C24.2037 71.2853 28.1126 74.5466 32.606 76.7928C37.0995 79.039 42.0542 80.2084 47.0778 80.2084C52.1014 80.2084 57.056 79.039 61.5495 76.7928C66.043 74.5466 69.9519 71.2853 72.9668 67.267C73.4358 66.6436 73.6381 65.8595 73.5291 65.087C73.4201 64.3145 73.0088 63.617 72.3857 63.1477Z" fill="white"/>
<path d="M14.0781 121.844L12.0156 116.535H5.21875L3.17969 121.844H1L7.69141 104.641H9.63672L16.3164 121.844H14.0781ZM11.3711 114.625L9.44922 109.434L8.62891 106.867C8.39453 107.805 8.14844 108.66 7.89062 109.434L5.94531 114.625H11.3711ZM34.7617 121.844V113.559C34.7617 111.527 33.8906 110.512 32.1484 110.512C30.9531 110.512 30.0742 110.859 29.5117 111.555C28.9492 112.25 28.668 113.313 28.668 114.742V121.844H26.5703V113.559C26.5703 112.543 26.3555 111.781 25.9258 111.274C25.5039 110.766 24.8398 110.512 23.9336 110.512C22.7461 110.512 21.875 110.875 21.3203 111.602C20.7734 112.328 20.5 113.52 20.5 115.176V121.844H18.3906V108.977H20.0898L20.4062 110.734H20.5234C20.8906 110.109 21.4062 109.621 22.0703 109.27C22.7422 108.918 23.4922 108.742 24.3203 108.742C26.3359 108.742 27.6484 109.461 28.2578 110.899H28.375C28.7891 110.211 29.3516 109.68 30.0625 109.305C30.7812 108.93 31.5938 108.742 32.5 108.742C33.9531 108.742 35.0391 109.117 35.7578 109.867C36.4844 110.617 36.8477 111.817 36.8477 113.465V121.844H34.7617ZM48.7891 121.844L48.3789 120.016H48.2852C47.6445 120.82 47.0039 121.367 46.3633 121.656C45.7305 121.938 44.9297 122.078 43.9609 122.078C42.6953 122.078 41.7031 121.746 40.9844 121.082C40.2656 120.418 39.9062 119.481 39.9062 118.27C39.9062 115.66 41.9648 114.293 46.082 114.168L48.2617 114.086V113.324C48.2617 112.348 48.0508 111.629 47.6289 111.168C47.207 110.699 46.5312 110.465 45.6016 110.465C44.9219 110.465 44.2773 110.567 43.668 110.77C43.0664 110.973 42.5 111.199 41.9688 111.449L41.3242 109.867C41.9727 109.524 42.6797 109.254 43.4453 109.059C44.2109 108.863 44.9688 108.766 45.7188 108.766C47.2734 108.766 48.4297 109.109 49.1875 109.797C49.9453 110.484 50.3242 111.578 50.3242 113.078V121.844H48.7891ZM44.4414 120.379C45.6211 120.379 46.5469 120.063 47.2188 119.43C47.8984 118.789 48.2383 117.883 48.2383 116.711V115.551L46.3398 115.633C44.8633 115.688 43.7852 115.922 43.1055 116.336C42.4336 116.75 42.0977 117.402 42.0977 118.293C42.0977 118.965 42.3008 119.481 42.707 119.84C43.1211 120.199 43.6992 120.379 44.4414 120.379ZM62.6289 121.844H53.2188V120.449L60.1328 110.617H53.6289V108.977H62.4531V110.559L55.6445 120.215H62.6289V121.844ZM76.7969 115.387C76.7969 117.488 76.2656 119.129 75.2031 120.309C74.1406 121.488 72.6719 122.078 70.7969 122.078C69.6328 122.078 68.6016 121.809 67.7031 121.27C66.8047 120.723 66.1133 119.942 65.6289 118.926C65.1445 117.91 64.9023 116.731 64.9023 115.387C64.9023 113.293 65.4258 111.664 66.4727 110.5C67.5195 109.328 68.9883 108.742 70.8789 108.742C72.6914 108.742 74.1289 109.34 75.1914 110.535C76.2617 111.723 76.7969 113.34 76.7969 115.387ZM67.082 115.387C67.082 117.004 67.3984 118.234 68.0312 119.078C68.6719 119.914 69.6133 120.332 70.8555 120.332C72.082 120.332 73.0156 119.914 73.6562 119.078C74.2969 118.234 74.6172 117.004 74.6172 115.387C74.6172 113.77 74.293 112.555 73.6445 111.742C73.0039 110.922 72.0625 110.512 70.8203 110.512C68.3281 110.512 67.082 112.137 67.082 115.387ZM88.9141 121.844V113.617C88.9141 112.57 88.6797 111.793 88.2109 111.285C87.75 110.77 87.0234 110.512 86.0312 110.512C84.7109 110.512 83.75 110.879 83.1484 111.613C82.5547 112.34 82.2578 113.527 82.2578 115.176V121.844H80.1484V108.977H81.8477L82.1641 110.734H82.2812C82.6797 110.102 83.2383 109.613 83.957 109.27C84.6758 108.918 85.4688 108.742 86.3359 108.742C87.9141 108.742 89.0859 109.125 89.8516 109.891C90.6172 110.656 91 111.848 91 113.465V121.844H88.9141Z" fill="white"/>
</svg>
