<svg width="103" height="134" viewBox="0 0 103 134" fill="none" xmlns="http://www.w3.org/2000/svg">
<path d="M63.5973 21.6086C63.5973 21.6086 62.7499 21.8629 61.3093 22.3289C61.0551 21.5663 60.7162 20.5918 60.2077 19.6596C58.5977 16.5666 56.225 14.9566 53.3438 14.9142C53.132 14.9142 52.9625 14.9142 52.7506 14.9566C52.6659 14.8718 52.5811 14.7447 52.4964 14.66C51.2677 13.3041 49.6576 12.6686 47.751 12.711C44.0648 12.8381 40.3786 15.5074 37.3704 20.2528C35.2519 23.6 33.6842 27.7947 33.2181 31.0148C28.9811 32.3282 26.0152 33.2604 25.9305 33.2604C23.7696 33.9383 23.7272 34.023 23.4307 36.0144C23.2188 37.5397 17.626 80.9265 17.626 80.9265L64.1481 88.9768V21.5239C63.9363 21.5239 63.7244 21.5663 63.5973 21.6086ZM52.8354 24.9559C50.3779 25.7185 47.6662 26.5659 44.9969 27.371C45.7596 24.4474 47.2002 21.5663 48.9797 19.6596C49.6576 18.9393 50.5474 18.1767 51.649 17.7106C52.6659 19.8715 52.8777 22.8797 52.8354 24.9559ZM47.7933 15.1684C48.6407 15.1684 49.4034 15.3379 50.039 15.7616C49.0221 16.27 48.0899 17.0327 47.1578 18.0072C44.8275 20.507 43.0055 24.4474 42.2853 28.2184C40.0397 28.8963 37.8788 29.5742 35.845 30.2097C37.1161 24.2356 42.1158 15.3379 47.7933 15.1684ZM40.5905 49.022C40.8447 52.9624 51.2677 53.8521 51.8609 63.1311C52.3269 70.4188 48.0052 75.4184 41.7345 75.7997C34.2773 76.2658 30.1251 71.8593 30.1251 71.8593L31.6928 65.1225C31.6928 65.1225 35.845 68.2579 39.1499 68.0461C41.3108 67.9189 42.0734 66.1394 42.031 64.9107C41.6921 59.7416 33.2181 60.0381 32.7097 51.5642C32.2436 44.4037 36.9467 37.2008 47.2849 36.5229C51.3101 36.2686 53.3438 37.2855 53.3438 37.2855L50.9711 46.1408C50.9711 46.1408 48.3442 44.9545 45.2088 45.1239C40.6328 45.4205 40.5481 48.3017 40.5905 49.022ZM55.2928 24.1932C55.2505 22.3289 55.0386 19.702 54.1488 17.4564C56.9452 18.0072 58.3435 21.1426 58.9366 23.0492C57.8774 23.3882 56.6487 23.7695 55.2928 24.1932ZM65.6735 88.8073L84.9941 84.0195C84.9941 84.0195 76.6896 27.837 76.6473 27.4557C76.6049 27.0744 76.2659 26.8625 75.9693 26.8201C75.6727 26.7778 70.2494 26.693 70.2494 26.693C70.2494 26.693 66.9445 23.4729 65.6735 22.2442V88.8073Z" fill="white"/>
<path d="M17.0469 120.262C17.0469 121.754 16.5078 122.93 15.4297 123.789C14.3516 124.649 12.8516 125.078 10.9297 125.078C8.89844 125.078 7.32812 124.809 6.21875 124.27V122.207C6.94531 122.52 7.73828 122.766 8.59766 122.945C9.46484 123.125 10.2734 123.215 11.0234 123.215C12.3047 123.215 13.2695 122.969 13.918 122.477C14.5664 121.984 14.8906 121.309 14.8906 120.449C14.8906 119.879 14.7734 119.41 14.5391 119.043C14.3047 118.676 13.9102 118.332 13.3555 118.012C12.8086 117.692 11.9766 117.328 10.8594 116.922C9.27344 116.344 8.14062 115.664 7.46094 114.883C6.78125 114.094 6.44141 113.078 6.44141 111.836C6.44141 110.5 6.94141 109.438 7.94141 108.649C8.94922 107.859 10.2734 107.465 11.9141 107.465C13.625 107.465 15.1992 107.785 16.6367 108.426L15.9688 110.277C14.5 109.668 13.1328 109.363 11.8672 109.363C10.8516 109.363 10.0547 109.582 9.47656 110.02C8.90625 110.457 8.62109 111.07 8.62109 111.859C8.62109 112.422 8.73047 112.891 8.94922 113.266C9.17578 113.633 9.53516 113.969 10.0273 114.274C10.5273 114.578 11.3086 114.926 12.3711 115.317C13.6445 115.785 14.5938 116.242 15.2188 116.688C15.8438 117.125 16.3047 117.633 16.6016 118.211C16.8984 118.781 17.0469 119.465 17.0469 120.262ZM28.9766 124.844V116.617C28.9766 115.57 28.7422 114.793 28.2734 114.285C27.8125 113.77 27.0859 113.512 26.0938 113.512C24.7891 113.512 23.832 113.875 23.2227 114.602C22.6211 115.328 22.3203 116.527 22.3203 118.199V124.844H20.2109V106.609H22.3203V111.953C22.3203 112.656 22.2812 113.258 22.2031 113.758H22.3438C22.7266 113.133 23.2695 112.645 23.9727 112.293C24.6758 111.942 25.4688 111.766 26.3516 111.766C27.9141 111.766 29.0898 112.141 29.8789 112.891C30.668 113.633 31.0625 114.824 31.0625 116.465V124.844H28.9766ZM46.2266 118.387C46.2266 120.488 45.6953 122.129 44.6328 123.309C43.5703 124.488 42.1016 125.078 40.2266 125.078C39.0625 125.078 38.0312 124.809 37.1328 124.27C36.2344 123.723 35.543 122.942 35.0586 121.926C34.5742 120.91 34.332 119.731 34.332 118.387C34.332 116.293 34.8555 114.664 35.9023 113.5C36.9492 112.328 38.418 111.742 40.3086 111.742C42.1211 111.742 43.5586 112.34 44.6211 113.535C45.6914 114.723 46.2266 116.34 46.2266 118.387ZM36.5117 118.387C36.5117 120.004 36.8281 121.234 37.4609 122.078C38.1016 122.914 39.043 123.332 40.2852 123.332C41.5117 123.332 42.4453 122.914 43.0859 122.078C43.7266 121.234 44.0469 120.004 44.0469 118.387C44.0469 116.77 43.7227 115.555 43.0742 114.742C42.4336 113.922 41.4922 113.512 40.25 113.512C37.7578 113.512 36.5117 115.137 36.5117 118.387ZM55.6719 125.078C53.9453 125.078 52.6172 124.457 51.6875 123.215H51.5469L51.5938 123.695C51.6562 124.305 51.6875 124.848 51.6875 125.324V130.609H49.5781V111.977H51.3125L51.5938 113.734H51.6875C52.1875 113.031 52.7656 112.524 53.4219 112.211C54.0781 111.899 54.8359 111.742 55.6953 111.742C57.3672 111.742 58.6641 112.324 59.5859 113.488C60.5156 114.645 60.9805 116.277 60.9805 118.387C60.9805 120.488 60.5156 122.129 59.5859 123.309C58.6562 124.488 57.3516 125.078 55.6719 125.078ZM55.3203 113.512C54.0469 113.512 53.125 113.871 52.5547 114.59C51.9922 115.309 51.7031 116.438 51.6875 117.977V118.387C51.6875 120.129 51.9766 121.391 52.5547 122.172C53.1328 122.945 54.0703 123.332 55.3672 123.332C56.4453 123.332 57.2852 122.895 57.8867 122.02C58.4961 121.145 58.8008 119.926 58.8008 118.363C58.8008 116.793 58.4961 115.594 57.8867 114.766C57.2852 113.93 56.4297 113.512 55.3203 113.512ZM66.4531 124.844H64.3438V111.977H66.4531V124.844ZM64.1797 108.496C64.1797 108.027 64.2969 107.688 64.5312 107.477C64.7734 107.266 65.0703 107.16 65.4219 107.16C65.75 107.16 66.0352 107.266 66.2773 107.477C66.5273 107.688 66.6523 108.027 66.6523 108.496C66.6523 108.957 66.5273 109.297 66.2773 109.516C66.0352 109.734 65.75 109.844 65.4219 109.844C65.0703 109.844 64.7734 109.734 64.5312 109.516C64.2969 109.297 64.1797 108.957 64.1797 108.496ZM76.4609 113.617H73.2148V124.844H71.1055V113.617H68.8555V112.633L71.1055 111.906V111.168C71.1055 109.606 71.4453 108.434 72.125 107.652C72.8125 106.871 73.8672 106.481 75.2891 106.481C76.1094 106.481 76.9414 106.625 77.7852 106.914L77.2227 108.567C76.4961 108.332 75.8594 108.215 75.3125 108.215C74.6016 108.215 74.0742 108.449 73.7305 108.918C73.3867 109.387 73.2148 110.129 73.2148 111.145V111.977H76.4609V113.617ZM76.7891 111.977H79.0508L81.8281 119.301C82.4141 120.895 82.7734 122.063 82.9062 122.805H83C83.0703 122.516 83.2305 121.977 83.4805 121.188C83.7305 120.391 83.9414 119.754 84.1133 119.277L86.7266 111.977H89L83.457 126.625C82.918 128.047 82.2773 129.067 81.5352 129.684C80.793 130.301 79.875 130.609 78.7812 130.609C78.1953 130.609 77.6133 130.543 77.0352 130.41V128.734C77.4258 128.828 77.8945 128.875 78.4414 128.875C79.1133 128.875 79.6836 128.688 80.1523 128.313C80.6211 127.945 81.0039 127.375 81.3008 126.602L81.9688 124.891L76.7891 111.977Z" fill="white"/>
</svg>
