<svg width="43" height="44" viewBox="0 0 43 44" fill="none" xmlns="http://www.w3.org/2000/svg">
<g clip-path="url(#clip0_105_447)">
<path d="M21.5 0C15.7978 0 10.3292 2.31785 6.2972 6.44365C2.26517 10.5695 0 16.1652 0 22C0 27.8348 2.26517 33.4305 6.2972 37.5564C10.3292 41.6822 15.7978 44 21.5 44C27.2022 44 32.6708 41.6822 36.7028 37.5564C40.7348 33.4305 43 27.8348 43 22C43 16.1652 40.7348 10.5695 36.7028 6.44365C32.6708 2.31785 27.2022 0 21.5 0ZM31.3604 31.7295C31.2687 31.8834 31.1482 32.0173 31.0058 32.1234C30.8635 32.2296 30.702 32.3059 30.5307 32.3481C30.3594 32.3902 30.1817 32.3974 30.0077 32.3691C29.8337 32.3408 29.6669 32.2777 29.5168 32.1833C24.467 29.029 18.1138 28.314 10.6291 30.0657C10.2823 30.1467 9.91831 30.0834 9.61717 29.8897C9.31603 29.6961 9.1024 29.388 9.02328 29.0331C8.94416 28.6783 9.00604 28.3058 9.19529 27.9977C9.38455 27.6896 9.68568 27.471 10.0324 27.39C18.2239 25.476 25.2491 26.2983 30.9143 29.843C31.2174 30.0331 31.4346 30.3384 31.5182 30.692C31.6018 31.0455 31.5451 31.4186 31.3604 31.7295ZM33.9915 25.74C33.7587 26.1275 33.385 26.4046 32.9526 26.5103C32.5202 26.616 32.0645 26.5417 31.6856 26.3037C25.9075 22.671 17.0979 21.6178 10.2609 23.7408C9.84473 23.8419 9.40653 23.7769 9.03567 23.5588C8.6648 23.3407 8.38921 22.9861 8.26511 22.5672C8.141 22.1484 8.17774 21.6969 8.36782 21.3048C8.5579 20.9127 8.887 20.6096 9.288 20.4573C17.0952 18.0345 26.8024 19.2087 33.4379 23.3805C33.817 23.6183 34.0884 24.0005 34.1922 24.4429C34.296 24.8854 34.2238 25.352 33.9915 25.74ZM34.2173 19.503C27.2889 15.29 15.8562 14.9022 9.23962 16.9565C8.72928 17.1148 8.1784 17.0591 7.70816 16.8018C7.23793 16.5444 6.88686 16.1065 6.73219 15.5842C6.57752 15.062 6.63191 14.4983 6.88341 14.0172C7.13491 13.536 7.56291 13.1768 8.07325 13.0185C15.6654 10.6618 28.2913 11.1155 36.2705 15.961C36.7295 16.2396 37.0616 16.6934 37.1936 17.2225C37.3257 17.7517 37.2469 18.3128 36.9746 18.7825C36.7023 19.2522 36.2589 19.592 35.7418 19.7271C35.2247 19.8622 34.6763 19.7816 34.2173 19.503Z" fill="#202020"/>
</g>
<defs>
<clipPath id="clip0_105_447">
<rect width="43" height="44" fill="white"/>
</clipPath>
</defs>
</svg>
