<svg width="64" height="63" viewBox="0 0 64 63" fill="none" xmlns="http://www.w3.org/2000/svg">
<path d="M8.97317 20.6587L9 20.4327L9.02683 20.6587C9.41969 23.9698 12.0302 26.5803 15.3412 26.9732L15.5673 27L15.3412 27.0268C12.0302 27.4197 9.41969 30.0302 9.02683 33.3412L9 33.5673L8.97317 33.3412C8.58031 30.0302 5.96979 27.4197 2.65875 27.0268L2.43265 27L2.65875 26.9732C5.96979 26.5803 8.58031 23.9698 8.97317 20.6587Z" fill="#95BF81" stroke="#202020"/>
<path d="M31.9732 47.6587L32 47.4327L32.0268 47.6587C32.4197 50.9698 35.0302 53.5803 38.3412 53.9732L38.5673 54L38.3412 54.0268C35.0302 54.4197 32.4197 57.0302 32.0268 60.3412L32 60.5673L31.9732 60.3412C31.5803 57.0302 28.9698 54.4197 25.6587 54.0268L25.4327 54L25.6587 53.9732C28.9698 53.5803 31.5803 50.9698 31.9732 47.6587Z" fill="#95BF81" stroke="#202020"/>
<path d="M31.9732 2.65875L32 2.43265L32.0268 2.65875C32.4197 5.96979 35.0302 8.58031 38.3412 8.97317L38.5673 9L38.3412 9.02683C35.0302 9.41969 32.4197 12.0302 32.0268 15.3412L32 15.5673L31.9732 15.3412C31.5803 12.0302 28.9698 9.41969 25.6587 9.02683L25.4327 9L25.6587 8.97317C28.9698 8.58031 31.5803 5.96979 31.9732 2.65875Z" fill="#95BF81" stroke="#202020"/>
<path d="M54.9732 29.6587L55 29.4327L55.0268 29.6587C55.4197 32.9698 58.0302 35.5803 61.3412 35.9732L61.5673 36L61.3412 36.0268C58.0302 36.4197 55.4197 39.0302 55.0268 42.3412L55 42.5673L54.9732 42.3412C54.5803 39.0302 51.9698 36.4197 48.6587 36.0268L48.4327 36L48.6587 35.9732C51.9698 35.5803 54.5803 32.9698 54.9732 29.6587Z" fill="#95BF81" stroke="#202020"/>
</svg>
