<svg width="46" height="47" viewBox="0 0 46 47" fill="none" xmlns="http://www.w3.org/2000/svg">
<g clip-path="url(#clip0_105_443)">
<path d="M23 0C35.7157 0 46 10.5079 46 23.5C46 36.4921 35.7157 47 23 47C10.2843 47 0 36.4921 0 23.5C0 10.5079 10.2843 0 23 0ZM18.7943 35.8879C28.98 35.8879 34.5657 27.26 34.5657 19.7736V19.035C35.65 18.2293 36.6029 17.2221 37.3257 16.0807C36.34 16.5171 35.2557 16.8193 34.1386 16.9871C35.2886 16.2821 36.1757 15.1743 36.57 13.865C35.4857 14.5029 34.3029 14.9729 33.0543 15.2414C32.0357 14.1336 30.59 13.4621 29.0129 13.4621C25.9571 13.4621 23.46 16.0136 23.46 19.1357C23.46 19.5721 23.4929 20.0086 23.6243 20.4114C19.0243 20.1764 14.9171 17.9271 12.19 14.5029C11.73 15.3421 11.4343 16.3157 11.4343 17.3564C11.4343 19.3036 12.42 21.0493 13.8986 22.0564C12.9786 22.0564 12.1243 21.7879 11.4014 21.3514V21.4186C11.4014 24.1714 13.3071 26.4543 15.8371 26.9914C15.3771 27.1257 14.8843 27.1929 14.3914 27.1929C14.03 27.1929 13.7014 27.1593 13.34 27.0921C14.03 29.3414 16.1 30.9864 18.4986 31.02C16.5929 32.5307 14.1943 33.4371 11.5986 33.4371C11.1386 33.4371 10.7114 33.4371 10.2843 33.37C12.7157 34.9814 15.64 35.9214 18.7614 35.9214" fill="#202020"/>
</g>
<defs>
<clipPath id="clip0_105_443">
<rect width="46" height="47" fill="white"/>
</clipPath>
</defs>
</svg>
