<svg width="99" height="119" viewBox="0 0 99 119" fill="none" xmlns="http://www.w3.org/2000/svg">
<g clip-path="url(#clip0_127_6)">
<path d="M69.4899 0.0648193H30.9745C21.59 0.0648193 13.9824 7.67244 13.9824 17.0569V55.5723C13.9824 64.9568 21.59 72.5644 30.9745 72.5644H69.4899C78.8744 72.5644 86.482 64.9568 86.482 55.5723V17.0569C86.482 7.67244 78.8744 0.0648193 69.4899 0.0648193Z" fill="white"/>
<path d="M61.8733 29.358C61.8733 29.358 57.9609 41.6156 57.6717 42.6563C57.5562 41.6348 54.7038 19.6057 54.7038 19.6057C48.0352 19.6057 44.489 24.3468 42.6 29.358C42.6 29.358 37.8397 41.6541 37.4542 42.6756C37.435 41.7119 36.7219 29.4736 36.7219 29.4736C36.3169 23.3253 30.7084 19.6057 26.1602 19.6057L31.6339 52.9674C38.6105 52.9482 42.3689 48.2263 44.3346 43.1961C44.3346 43.1961 48.5169 32.3453 48.6905 31.8635C48.7291 32.326 51.697 52.9674 51.697 52.9674C58.6932 52.9674 62.4708 48.554 64.4943 43.7164L74.3044 19.6057C67.3852 19.6057 63.7427 24.3275 61.8733 29.358Z" fill="#202020"/>
</g>
<path d="M17.4492 109.844H15.2695L11.9297 98.6173C11.4375 96.9454 11.1484 95.8165 11.0625 95.2306C10.9375 96.129 10.6641 97.2814 10.2422 98.6876L7.00781 109.844H4.82812L0.292969 92.7111H2.54297L5.20312 103.176C5.5625 104.543 5.83594 105.902 6.02344 107.254C6.19531 105.973 6.5 104.57 6.9375 103.047L9.96094 92.7111H12.1875L15.3398 103.129C15.7461 104.481 16.0586 105.856 16.2773 107.254C16.4023 106.176 16.6797 104.809 17.1094 103.152L19.7578 92.7111H22.0078L17.4492 109.844ZM29.6133 110.078C27.6836 110.078 26.168 109.496 25.0664 108.332C23.9727 107.16 23.4258 105.551 23.4258 103.504C23.4258 101.442 23.9375 99.8009 24.9609 98.5822C25.9844 97.3556 27.3672 96.7423 29.1094 96.7423C30.7266 96.7423 32.0156 97.2657 32.9766 98.3126C33.9375 99.3517 34.418 100.762 34.418 102.543V103.82H25.6055C25.6445 105.281 26.0156 106.391 26.7188 107.149C27.4219 107.906 28.418 108.285 29.707 108.285C30.3945 108.285 31.0469 108.227 31.6641 108.109C32.2812 107.984 33.0039 107.746 33.832 107.395V109.246C33.1211 109.551 32.4531 109.766 31.8281 109.891C31.2031 110.016 30.4648 110.078 29.6133 110.078ZM29.0859 98.465C28.0781 98.465 27.2812 98.7892 26.6953 99.4376C26.1094 100.086 25.7617 100.988 25.6523 102.145H32.2031C32.1875 100.942 31.9102 100.027 31.3711 99.4025C30.832 98.7775 30.0703 98.465 29.0859 98.465ZM43.7812 96.7657C45.4766 96.7657 46.7852 97.3517 47.707 98.5236C48.6289 99.6876 49.0898 101.317 49.0898 103.41C49.0898 105.535 48.6211 107.18 47.6836 108.344C46.7461 109.5 45.4453 110.078 43.7812 110.078C42.9141 110.078 42.1406 109.922 41.4609 109.609C40.7812 109.297 40.2266 108.832 39.7969 108.215H39.6328C39.3906 109.152 39.2461 109.695 39.1992 109.844H37.6875V91.6095H39.7969V96.0392C39.7969 96.922 39.7578 97.8048 39.6797 98.6876H39.7969C40.6641 97.4064 41.9922 96.7657 43.7812 96.7657ZM43.4297 98.5118C42.1328 98.5118 41.2031 98.879 40.6406 99.6134C40.0781 100.348 39.7969 101.59 39.7969 103.34V103.434C39.7969 105.192 40.082 106.449 40.6523 107.207C41.2305 107.957 42.1719 108.332 43.4766 108.332C44.6328 108.332 45.4922 107.91 46.0547 107.067C46.625 106.215 46.9102 104.988 46.9102 103.387C46.9102 101.762 46.625 100.543 46.0547 99.7306C45.4844 98.9181 44.6094 98.5118 43.4297 98.5118ZM58.3828 98.6173H55.1367V109.844H53.0273V98.6173H50.7773V97.6329L53.0273 96.9064V96.1681C53.0273 94.6056 53.3672 93.4337 54.0469 92.6525C54.7344 91.8712 55.7891 91.4806 57.2109 91.4806C58.0312 91.4806 58.8633 91.6251 59.707 91.9142L59.1445 93.5665C58.418 93.3322 57.7812 93.215 57.2344 93.215C56.5234 93.215 55.9961 93.4493 55.6523 93.9181C55.3086 94.3868 55.1367 95.129 55.1367 96.1447V96.9767H58.3828V98.6173ZM62.8359 109.844H60.7266V91.6095H62.8359V109.844ZM78.0938 103.387C78.0938 105.488 77.5625 107.129 76.5 108.309C75.4375 109.488 73.9688 110.078 72.0938 110.078C70.9297 110.078 69.8984 109.809 69 109.27C68.1016 108.723 67.4102 107.942 66.9258 106.926C66.4414 105.91 66.1992 104.731 66.1992 103.387C66.1992 101.293 66.7227 99.6642 67.7695 98.5001C68.8164 97.3282 70.2852 96.7423 72.1758 96.7423C73.9883 96.7423 75.4258 97.34 76.4883 98.5353C77.5586 99.7228 78.0938 101.34 78.0938 103.387ZM68.3789 103.387C68.3789 105.004 68.6953 106.234 69.3281 107.078C69.9688 107.914 70.9102 108.332 72.1523 108.332C73.3789 108.332 74.3125 107.914 74.9531 107.078C75.5938 106.234 75.9141 105.004 75.9141 103.387C75.9141 101.77 75.5898 100.555 74.9414 99.7423C74.3008 98.922 73.3594 98.5118 72.1172 98.5118C69.625 98.5118 68.3789 100.137 68.3789 103.387ZM91.7227 109.844L89.5195 102.602C89.3164 102 89.0195 100.863 88.6289 99.1915H88.5352C88.207 100.715 87.918 101.859 87.668 102.625L85.3594 109.844H82.9688L79.4414 96.9767H81.6211C82.4336 100.141 83.0508 102.547 83.4727 104.195C83.9023 105.844 84.1562 107.008 84.2344 107.688H84.3281L84.4922 106.961C84.7344 105.844 84.9688 104.934 85.1953 104.231L87.4805 96.9767H89.7773L91.9922 104.231C92.0703 104.504 92.1523 104.797 92.2383 105.109C92.332 105.414 92.418 105.719 92.4961 106.024C92.5742 106.32 92.6445 106.613 92.707 106.902C92.7695 107.184 92.8164 107.438 92.8477 107.664H92.9531C93.0234 107.07 93.3086 105.797 93.8086 103.844L95.6133 96.9767H97.7695L94.1953 109.844H91.7227Z" fill="white"/>
<defs>
<clipPath id="clip0_127_6">
<rect width="72.4996" height="72.4996" fill="white" transform="translate(13.9824 0.0648193)"/>
</clipPath>
</defs>
</svg>
